# xmcd
#
# Track frame offsets:
# 150
# 18277
# 29055
# 50976
# 68685
# 89277
# 110273
# 126231
# 145663
# 161862
# 166970
#
# Disc length: 2450 seconds
#
#
# Revision: 0
# Processed by: cddbd v1.5.1PL0 Copyright (c) Steve Scherf et al.
# Submitted via: FreeRIP 2.90 
#
DISCID=9709900b
DTITLE=Michael Pickett - Solo
DYEAR=2002
DGENRE=Blues
TTITLE0=Louise
TTITLE1=Blues Is A Friend Of Mine
TTITLE2=Steady Rollin' Man
TTITLE3=The 'Hood
TTITLE4=Cecil and Spadina
TTITLE5=Feel Like A Stranger
TTITLE6=Lonesome Road
TTITLE7=Lose Your Money
TTITLE8=World In An Uproar
TTITLE9=Bill's Song
TTITLE10=Living With The Blues
EXTD=Bluesfestradio.com
EXTT0=
EXTT1=
EXTT2=
EXTT3=
EXTT4=
EXTT5=
EXTT6=
EXTT7=
EXTT8=
EXTT9=
EXTT10=
PLAYORDER=
